# xmcd
#
# Track frame offsets:
#	150
#	18270
#	36335
#
# Disc length: 960 seconds
#
# Revision: 0
# Processed by: cddbd v1.5.2PL0 Copyright (c) Steve Scherf et al.
# Submitted via: audiograbber 1.83.01
#
DISCID=1b03be03
DTITLE=Juice - CD Single
DYEAR=1997
DGENRE=
TTITLE0=I'll Come Runnin' (Radio Edit)
TTITLE1=I'll Come Runnin' (Soulpower Remix)
TTITLE2=I'll Come Runnin' (TNT's Mo' Soul Extended Club)
EXTD=
EXTT0=
EXTT1=
EXTT2=
PLAYORDER=
